<svg id="visual" viewBox="0 0 900 600" width="900" height="600" xmlns="http://www.w3.org/2000/svg" xmlns:xlink="http://www.w3.org/1999/xlink" version="1.1"><rect x="0" y="0" width="900" height="600" fill="#fff"></rect><defs><linearGradient id="grad1_0" x1="33.3%" y1="100%" x2="100%" y2="0%"><stop offset="20%" stop-color="#8c0010" stop-opacity="1"></stop><stop offset="80%" stop-color="#8c0010" stop-opacity="1"></stop></linearGradient></defs><defs><linearGradient id="grad1_1" x1="33.3%" y1="100%" x2="100%" y2="0%"><stop offset="20%" stop-color="#8c0010" stop-opacity="1"></stop><stop offset="80%" stop-color="#a2362d" stop-opacity="1"></stop></linearGradient></defs><defs><linearGradient id="grad1_2" x1="33.3%" y1="100%" x2="100%" y2="0%"><stop offset="20%" stop-color="#b6584c" stop-opacity="1"></stop><stop offset="80%" stop-color="#a2362d" stop-opacity="1"></stop></linearGradient></defs><defs><linearGradient id="grad1_3" x1="33.3%" y1="100%" x2="100%" y2="0%"><stop offset="20%" stop-color="#b6584c" stop-opacity="1"></stop><stop offset="80%" stop-color="#c8796d" stop-opacity="1"></stop></linearGradient></defs><defs><linearGradient id="grad1_4" x1="33.3%" y1="100%" x2="100%" y2="0%"><stop offset="20%" stop-color="#d99a8f" stop-opacity="1"></stop><stop offset="80%" stop-color="#c8796d" stop-opacity="1"></stop></linearGradient></defs><defs><linearGradient id="grad1_5" x1="33.3%" y1="100%" x2="100%" y2="0%"><stop offset="20%" stop-color="#d99a8f" stop-opacity="1"></stop><stop offset="80%" stop-color="#e7bbb3" stop-opacity="1"></stop></linearGradient></defs><defs><linearGradient id="grad1_6" x1="33.3%" y1="100%" x2="100%" y2="0%"><stop offset="20%" stop-color="#f4ddd9" stop-opacity="1"></stop><stop offset="80%" stop-color="#e7bbb3" stop-opacity="1"></stop></linearGradient></defs><defs><linearGradient id="grad1_7" x1="33.3%" y1="100%" x2="100%" y2="0%"><stop offset="20%" stop-color="#f4ddd9" stop-opacity="1"></stop><stop offset="80%" stop-color="#ffffff" stop-opacity="1"></stop></linearGradient></defs><defs><linearGradient id="grad2_0" x1="0%" y1="100%" x2="66.7%" y2="0%"><stop offset="20%" stop-color="#8c0010" stop-opacity="1"></stop><stop offset="80%" stop-color="#8c0010" stop-opacity="1"></stop></linearGradient></defs><defs><linearGradient id="grad2_1" x1="0%" y1="100%" x2="66.7%" y2="0%"><stop offset="20%" stop-color="#a2362d" stop-opacity="1"></stop><stop offset="80%" stop-color="#8c0010" stop-opacity="1"></stop></linearGradient></defs><defs><linearGradient id="grad2_2" x1="0%" y1="100%" x2="66.7%" y2="0%"><stop offset="20%" stop-color="#a2362d" stop-opacity="1"></stop><stop offset="80%" stop-color="#b6584c" stop-opacity="1"></stop></linearGradient></defs><defs><linearGradient id="grad2_3" x1="0%" y1="100%" x2="66.7%" y2="0%"><stop offset="20%" stop-color="#c8796d" stop-opacity="1"></stop><stop offset="80%" stop-color="#b6584c" stop-opacity="1"></stop></linearGradient></defs><defs><linearGradient id="grad2_4" x1="0%" y1="100%" x2="66.7%" y2="0%"><stop offset="20%" stop-color="#c8796d" stop-opacity="1"></stop><stop offset="80%" stop-color="#d99a8f" stop-opacity="1"></stop></linearGradient></defs><defs><linearGradient id="grad2_5" x1="0%" y1="100%" x2="66.7%" y2="0%"><stop offset="20%" stop-color="#e7bbb3" stop-opacity="1"></stop><stop offset="80%" stop-color="#d99a8f" stop-opacity="1"></stop></linearGradient></defs><defs><linearGradient id="grad2_6" x1="0%" y1="100%" x2="66.7%" y2="0%"><stop offset="20%" stop-color="#e7bbb3" stop-opacity="1"></stop><stop offset="80%" stop-color="#f4ddd9" stop-opacity="1"></stop></linearGradient></defs><defs><linearGradient id="grad2_7" x1="0%" y1="100%" x2="66.7%" y2="0%"><stop offset="20%" stop-color="#ffffff" stop-opacity="1"></stop><stop offset="80%" stop-color="#f4ddd9" stop-opacity="1"></stop></linearGradient></defs><g transform="translate(900, 600)"><path d="M-432.7 0C-422 -19.2 -411.3 -38.4 -408.8 -58.8C-406.2 -79.2 -411.8 -100.8 -406.8 -119.5C-401.8 -138.1 -386.3 -153.9 -377.5 -172.4C-368.7 -190.9 -366.7 -212.2 -358.4 -230.3C-350.1 -248.4 -335.6 -263.4 -322.7 -279.6C-309.8 -295.9 -298.5 -313.4 -283.3 -327C-268.1 -340.6 -249 -350.4 -229.2 -356.7C-209.5 -363 -189.1 -365.9 -171.2 -374.8C-153.2 -383.6 -137.5 -398.4 -119.5 -406.8C-101.4 -415.3 -80.8 -417.4 -60.5 -420.7C-40.2 -423.9 -20.1 -428.3 0 -432.7L0 0Z" fill="#faeeec"></path><path d="M-378.6 0C-369.3 -16.8 -359.9 -33.6 -357.7 -51.4C-355.5 -69.3 -360.3 -88.2 -356 -104.5C-351.6 -120.9 -338 -134.6 -330.3 -150.8C-322.6 -167 -320.8 -185.7 -313.6 -201.5C-306.3 -217.4 -293.6 -230.5 -282.4 -244.7C-271.1 -258.9 -261.2 -274.2 -247.9 -286.1C-234.6 -298 -217.9 -306.6 -200.6 -312.1C-183.3 -317.6 -165.5 -320.2 -149.8 -327.9C-134 -335.7 -120.4 -348.6 -104.5 -356C-88.7 -363.4 -70.7 -365.2 -52.9 -368.1C-35.1 -370.9 -17.6 -374.8 0 -378.6L0 0Z" fill="#eeccc6"></path><path d="M-324.5 0C-316.5 -14.4 -308.5 -28.8 -306.6 -44.1C-304.7 -59.4 -308.9 -75.6 -305.1 -89.6C-301.4 -103.6 -289.7 -115.4 -283.1 -129.3C-276.5 -143.2 -275 -159.1 -268.8 -172.7C-262.6 -186.3 -251.7 -197.5 -242 -209.7C-232.4 -221.9 -223.9 -235 -212.5 -245.2C-201.1 -255.5 -186.7 -262.8 -171.9 -267.5C-157.1 -272.3 -141.9 -274.4 -128.4 -281.1C-114.9 -287.7 -103.2 -298.8 -89.6 -305.1C-76 -311.5 -60.6 -313.1 -45.4 -315.5C-30.1 -317.9 -15.1 -321.2 0 -324.5L0 0Z" fill="#e0aaa1"></path><path d="M-270.4 0C-263.8 -12 -257.1 -24 -255.5 -36.7C-253.9 -49.5 -257.4 -63 -254.3 -74.7C-251.1 -86.3 -241.4 -96.2 -235.9 -107.7C-230.4 -119.3 -229.2 -132.6 -224 -143.9C-218.8 -155.3 -209.7 -164.6 -201.7 -174.8C-193.6 -184.9 -186.6 -195.9 -177.1 -204.4C-167.6 -212.9 -155.6 -219 -143.3 -222.9C-130.9 -226.9 -118.2 -228.7 -107 -234.2C-95.7 -239.8 -86 -249 -74.7 -254.3C-63.4 -259.5 -50.5 -260.9 -37.8 -262.9C-25.1 -265 -12.6 -267.7 0 -270.4L0 0Z" fill="#d18a7e"></path><path d="M-216.3 0C-211 -9.6 -205.7 -19.2 -204.4 -29.4C-203.1 -39.6 -205.9 -50.4 -203.4 -59.7C-200.9 -69.1 -193.1 -76.9 -188.7 -86.2C-184.4 -95.5 -183.3 -106.1 -179.2 -115.2C-175 -124.2 -167.8 -131.7 -161.4 -139.8C-154.9 -147.9 -149.3 -156.7 -141.7 -163.5C-134.1 -170.3 -124.5 -175.2 -114.6 -178.3C-104.7 -181.5 -94.6 -183 -85.6 -187.4C-76.6 -191.8 -68.8 -199.2 -59.7 -203.4C-50.7 -207.6 -40.4 -208.7 -30.2 -210.3C-20.1 -212 -10 -214.1 0 -216.3L0 0Z" fill="#bf695c"></path><path d="M-162.2 0C-158.3 -7.2 -154.3 -14.4 -153.3 -22C-152.3 -29.7 -154.4 -37.8 -152.6 -44.8C-150.7 -51.8 -144.9 -57.7 -141.6 -64.6C-138.3 -71.6 -137.5 -79.6 -134.4 -86.4C-131.3 -93.2 -125.8 -98.8 -121 -104.9C-116.2 -110.9 -112 -117.5 -106.3 -122.6C-100.5 -127.7 -93.4 -131.4 -86 -133.8C-78.6 -136.1 -70.9 -137.2 -64.2 -140.5C-57.4 -143.9 -51.6 -149.4 -44.8 -152.6C-38 -155.7 -30.3 -156.5 -22.7 -157.8C-15.1 -159 -7.5 -160.6 0 -162.2L0 0Z" fill="#ac473c"></path><path d="M-108.2 0C-105.5 -4.8 -102.8 -9.6 -102.2 -14.7C-101.6 -19.8 -103 -25.2 -101.7 -29.9C-100.5 -34.5 -96.6 -38.5 -94.4 -43.1C-92.2 -47.7 -91.7 -53 -89.6 -57.6C-87.5 -62.1 -83.9 -65.8 -80.7 -69.9C-77.5 -74 -74.6 -78.3 -70.8 -81.7C-67 -85.2 -62.2 -87.6 -57.3 -89.2C-52.4 -90.8 -47.3 -91.5 -42.8 -93.7C-38.3 -95.9 -34.4 -99.6 -29.9 -101.7C-25.3 -103.8 -20.2 -104.4 -15.1 -105.2C-10 -106 -5 -107.1 0 -108.2L0 0Z" fill="#97211e"></path><path d="M-54.1 0C-52.8 -2.4 -51.4 -4.8 -51.1 -7.3C-50.8 -9.9 -51.5 -12.6 -50.9 -14.9C-50.2 -17.3 -48.3 -19.2 -47.2 -21.5C-46.1 -23.9 -45.8 -26.5 -44.8 -28.8C-43.8 -31.1 -41.9 -32.9 -40.3 -35C-38.7 -37 -37.3 -39.2 -35.4 -40.9C-33.5 -42.6 -31.1 -43.8 -28.7 -44.6C-26.2 -45.4 -23.6 -45.7 -21.4 -46.8C-19.1 -48 -17.2 -49.8 -14.9 -50.9C-12.7 -51.9 -10.1 -52.2 -7.6 -52.6C-5 -53 -2.5 -53.5 0 -54.1L0 0Z" fill="#8c0010"></path></g><g transform="translate(0, 0)"><path d="M432.7 0C424.4 19.8 416.1 39.6 410.8 59.1C405.5 78.6 403.2 97.8 400.1 117.5C397.1 137.2 393.2 157.3 387.5 177C381.8 196.7 374.1 215.9 364 233.9C353.9 251.9 341.3 268.7 325.7 282.2C310.2 295.8 291.6 306 273.7 315.9C255.9 325.8 238.8 335.4 222.2 345.8C205.6 356.1 189.4 367.3 172 376.6C154.6 385.9 136 393.3 117.2 399.1C98.4 405 79.2 409.4 59.6 414.7C40 420.1 20 426.4 0 432.7L0 0Z" fill="#faeeec"></path><path d="M378.6 0C371.3 17.3 364.1 34.6 359.4 51.7C354.8 68.7 352.8 85.6 350.1 102.8C347.4 120 344.1 137.6 339.1 154.8C334 172.1 327.3 188.9 318.5 204.7C309.6 220.4 298.6 235.1 285 247C271.4 258.8 255.1 267.7 239.5 276.4C223.9 285.1 209 293.5 194.4 302.5C179.9 311.6 165.7 321.4 150.5 329.5C135.3 337.6 119 344.1 102.6 349.3C86.1 354.4 69.3 358.2 52.2 362.9C35 367.6 17.5 373.1 0 378.6L0 0Z" fill="#eeccc6"></path><path d="M324.5 0C318.3 14.8 312.1 29.7 308.1 44.3C304.1 58.9 302.4 73.4 300.1 88.1C297.8 102.9 294.9 118 290.6 132.7C286.3 147.5 280.6 161.9 273 175.4C265.4 189 256 201.5 244.3 211.7C232.6 221.8 218.7 229.5 205.3 236.9C191.9 244.4 179.1 251.5 166.7 259.3C154.2 267.1 142 275.5 129 282.4C116 289.4 102 295 87.9 299.4C73.8 303.8 59.4 307.1 44.7 311.1C30 315.1 15 319.8 0 324.5L0 0Z" fill="#e0aaa1"></path><path d="M270.4 0C265.2 12.4 260 24.7 256.7 36.9C253.4 49.1 252 61.1 250.1 73.4C248.2 85.7 245.8 98.3 242.2 110.6C238.6 122.9 233.8 134.9 227.5 146.2C221.2 157.5 213.3 168 203.6 176.4C193.8 184.9 182.2 191.2 171.1 197.4C159.9 203.6 149.3 209.6 138.9 216.1C128.5 222.6 118.4 229.6 107.5 235.4C96.6 241.2 85 245.8 73.3 249.5C61.5 253.1 49.5 255.9 37.3 259.2C25 262.5 12.5 266.5 0 270.4L0 0Z" fill="#d18a7e"></path><path d="M216.3 0C212.2 9.9 208 19.8 205.4 29.5C202.7 39.3 201.6 48.9 200.1 58.7C198.5 68.6 196.6 78.6 193.8 88.5C190.9 98.3 187 107.9 182 117C176.9 126 170.7 134.4 162.9 141.1C155.1 147.9 145.8 153 136.9 158C128 162.9 119.4 167.7 111.1 172.9C102.8 178.1 94.7 183.7 86 188.3C77.3 192.9 68 196.6 58.6 199.6C49.2 202.5 39.6 204.7 29.8 207.4C20 210 10 213.2 0 216.3L0 0Z" fill="#bf695c"></path><path d="M162.2 0C159.1 7.4 156 14.8 154 22.1C152.1 29.5 151.2 36.7 150 44.1C148.9 51.4 147.5 59 145.3 66.4C143.2 73.7 140.3 81 136.5 87.7C132.7 94.5 128 100.8 122.1 105.8C116.3 110.9 109.3 114.7 102.6 118.5C96 122.2 89.6 125.8 83.3 129.7C77.1 133.5 71 137.7 64.5 141.2C58 144.7 51 147.5 44 149.7C36.9 151.9 29.7 153.5 22.4 155.5C15 157.5 7.5 159.9 0 162.2L0 0Z" fill="#ac473c"></path><path d="M108.2 0C106.1 4.9 104 9.9 102.7 14.8C101.4 19.6 100.8 24.5 100 29.4C99.3 34.3 98.3 39.3 96.9 44.2C95.4 49.2 93.5 54 91 58.5C88.5 63 85.3 67.2 81.4 70.6C77.5 73.9 72.9 76.5 68.4 79C64 81.5 59.7 83.8 55.6 86.4C51.4 89 47.3 91.8 43 94.1C38.7 96.5 34 98.3 29.3 99.8C24.6 101.3 19.8 102.4 14.9 103.7C10 105 5 106.6 0 108.2L0 0Z" fill="#97211e"></path><path d="M54.1 0C53 2.5 52 4.9 51.3 7.4C50.7 9.8 50.4 12.2 50 14.7C49.6 17.1 49.2 19.7 48.4 22.1C47.7 24.6 46.8 27 45.5 29.2C44.2 31.5 42.7 33.6 40.7 35.3C38.8 37 36.4 38.2 34.2 39.5C32 40.7 29.9 41.9 27.8 43.2C25.7 44.5 23.7 45.9 21.5 47.1C19.3 48.2 17 49.2 14.7 49.9C12.3 50.6 9.9 51.2 7.5 51.8C5 52.5 2.5 53.3 0 54.1L0 0Z" fill="#8c0010"></path></g></svg>