<svg id="visual" viewBox="0 0 900 600" width="900" height="600" xmlns="http://www.w3.org/2000/svg" xmlns:xlink="http://www.w3.org/1999/xlink" version="1.1"><rect x="0" y="0" width="900" height="600" fill="#FFCE1A"></rect><path d="M312 0L303.8 25C295.7 50 279.3 100 291.3 150C303.3 200 343.7 250 398.5 300C453.3 350 522.7 400 554 450C585.3 500 578.7 550 575.3 575L572 600L0 600L0 575C0 550 0 500 0 450C0 400 0 350 0 300C0 250 0 200 0 150C0 100 0 50 0 25L0 0Z" fill="#8C0010" stroke-linecap="round" stroke-linejoin="miter"></path></svg>