<svg id="visual" viewBox="0 0 900 600" width="900" height="600" xmlns="http://www.w3.org/2000/svg" xmlns:xlink="http://www.w3.org/1999/xlink" version="1.1"><rect x="0" y="0" width="900" height="600" fill="#8C0010"></rect><path d="M254 600L277.5 583.3C301 566.7 348 533.3 338.7 500C329.3 466.7 263.7 433.3 258.3 400C253 366.7 308 333.3 351.8 300C395.7 266.7 428.3 233.3 432.8 200C437.3 166.7 413.7 133.3 390.3 100C367 66.7 344 33.3 332.5 16.7L321 0L900 0L900 16.7C900 33.3 900 66.7 900 100C900 133.3 900 166.7 900 200C900 233.3 900 266.7 900 300C900 333.3 900 366.7 900 400C900 433.3 900 466.7 900 500C900 533.3 900 566.7 900 583.3L900 600Z" fill="#ffce1a" stroke-linecap="round" stroke-linejoin="miter"></path></svg>